<?xml version="1.0" encoding="UTF-8" standalone="no"?>
<!-- Created with Inkscape (http://www.inkscape.org/) -->

<svg
   xmlns:dc="http://purl.org/dc/elements/1.1/"
   xmlns:cc="http://creativecommons.org/ns#"
   xmlns:rdf="http://www.w3.org/1999/02/22-rdf-syntax-ns#"
   xmlns:svg="http://www.w3.org/2000/svg"
   xmlns="http://www.w3.org/2000/svg"
   xmlns:sodipodi="http://sodipodi.sourceforge.net/DTD/sodipodi-0.dtd"
   xmlns:inkscape="http://www.inkscape.org/namespaces/inkscape"
   width="56.023735mm"
   height="15.725423mm"
   viewBox="0 0 56.023735 15.725423"
   version="1.1"
   id="svg8"
   inkscape:version="0.92.2 5c3e80d, 2017-08-06"
   sodipodi:docname="blisk-logo_v2.svg">
  <defs
     id="defs2" />
  <sodipodi:namedview
     id="base"
     pagecolor="#ffffff"
     bordercolor="#666666"
     borderopacity="1.0"
     inkscape:pageopacity="0.0"
     inkscape:pageshadow="2"
     inkscape:zoom="2.8284271"
     inkscape:cx="106.33032"
     inkscape:cy="29.717333"
     inkscape:document-units="mm"
     inkscape:current-layer="layer1"
     showgrid="false"
     inkscape:window-width="948"
     inkscape:window-height="614"
     inkscape:window-x="444"
     inkscape:window-y="82"
     inkscape:window-maximized="0"
     fit-margin-top="0"
     fit-margin-left="0"
     fit-margin-right="0"
     fit-margin-bottom="0"
     inkscape:pagecheckerboard="true" />
  <metadata
     id="metadata5">
    <rdf:RDF>
      <cc:Work
         rdf:about="">
        <dc:format>image/svg+xml</dc:format>
        <dc:type
           rdf:resource="http://purl.org/dc/dcmitype/StillImage" />
        <dc:title></dc:title>
      </cc:Work>
    </rdf:RDF>
  </metadata>
  <g
     inkscape:label="Layer 1"
     inkscape:groupmode="layer"
     id="layer1"
     style="display:inline"
     transform="translate(-51.383546,-112.3561)">
    <path
       style="font-style:normal;font-variant:normal;font-weight:normal;font-stretch:normal;font-size:11.28888893px;line-height:1.25;font-family:Futura;-inkscape-font-specification:Futura;letter-spacing:0px;word-spacing:0px;fill:#000000;fill-opacity:1;stroke:none;stroke-width:0.99999994"
       d="M 122.79102 0 C 119.80435 0 117.09145 0.44774999 114.65234 1.34375 C 112.26301 2.23975 110.22174 3.509677 108.5293 5.1523438 C 106.88663 6.7452326 105.59422 8.6867852 104.64844 10.976562 C 103.75244 13.216563 103.30273 15.730022 103.30273 18.517578 C 103.30273 21.305134 103.72604 23.61916 104.57227 25.460938 C 105.46827 27.252937 106.61403 28.74674 108.00781 29.941406 C 109.45137 31.136073 111.06933 32.106849 112.86133 32.853516 C 114.70311 33.550405 116.56938 34.197589 118.46094 34.794922 C 120.05383 35.342477 121.39708 35.839109 122.49219 36.287109 C 123.63708 36.735109 124.55897 37.233694 125.25586 37.78125 C 125.95275 38.279028 126.44938 38.850936 126.74805 39.498047 C 127.04671 40.09538 127.19727 40.817841 127.19727 41.664062 C 127.19727 43.05784 126.59896 44.301373 125.4043 45.396484 C 124.25941 46.491596 122.49285 47.039062 120.10352 47.039062 C 118.01285 47.039062 115.8963 46.566872 113.75586 45.621094 C 111.61541 44.675316 109.45194 43.232349 107.26172 41.291016 L 100.98828 53.087891 C 107.06117 57.319002 113.65717 59.435547 120.77539 59.435547 C 124.21006 59.435547 127.27098 58.961403 129.95898 58.015625 C 132.69676 57.119625 134.98636 55.849698 136.82812 54.207031 C 138.71968 52.514587 140.13821 50.499712 141.08398 48.160156 C 142.07954 45.820601 142.57812 43.207424 142.57812 40.320312 C 142.57812 36.039424 141.45875 32.579629 139.21875 29.941406 C 137.02853 27.253406 133.54429 25.11242 128.76562 23.519531 C 127.57097 23.121309 126.34991 22.748835 125.10547 22.400391 C 123.9108 22.051946 122.81587 21.653078 121.82031 21.205078 C 120.87453 20.7073 120.10319 20.135392 119.50586 19.488281 C 118.90853 18.84117 118.60937 18.018992 118.60938 17.023438 C 118.60937 15.579882 119.20768 14.411625 120.40234 13.515625 C 121.59701 12.619625 123.13969 12.169922 125.03125 12.169922 C 126.52458 12.169922 128.06727 12.493514 129.66016 13.140625 C 131.25305 13.737958 132.84656 14.684293 134.43945 15.978516 L 140.26367 4.5546875 C 137.47612 3.0613541 134.56379 1.9419792 131.52734 1.1953125 C 128.4909 0.39886804 125.57857 0 122.79102 0 z M 0 1.5683594 L 0 57.867188 L 23.519531 57.867188 C 26.506198 57.867187 29.194651 57.519155 31.583984 56.822266 C 33.973318 56.125377 35.990147 55.079325 37.632812 53.685547 C 39.325257 52.291769 40.619625 50.574092 41.515625 48.533203 C 42.461403 46.492314 42.933594 44.153847 42.933594 41.515625 C 42.933594 39.823181 42.734159 38.229661 42.335938 36.736328 C 41.937715 35.242995 41.26609 33.897792 40.320312 32.703125 C 39.424313 31.508458 38.229661 30.513241 36.736328 29.716797 C 35.292773 28.870575 33.526214 28.249785 31.435547 27.851562 C 33.526214 26.557341 35.068898 24.988262 36.064453 23.146484 C 37.109786 21.254929 37.632812 18.890068 37.632812 16.052734 C 37.632812 11.373623 36.287609 7.7896702 33.599609 5.3007812 C 30.911609 2.8118924 26.979623 1.5683594 21.802734 1.5683594 L 0 1.5683594 z M 46.904297 1.5683594 L 46.904297 57.867188 L 79.085938 57.867188 L 79.085938 45.472656 L 61.539062 45.472656 L 61.539062 1.5683594 L 46.904297 1.5683594 z M 81.851562 1.5683594 L 81.851562 57.867188 L 96.486328 57.867188 L 96.486328 1.5683594 L 81.851562 1.5683594 z M 147.07812 1.5683594 L 147.07812 57.867188 L 161.71289 57.867188 L 161.71289 33.451172 L 180.75391 57.867188 L 199.71875 57.867188 L 175.30273 28.224609 L 197.62695 1.5683594 L 179.55859 1.5683594 L 161.71289 24.789062 L 161.71289 1.5683594 L 147.07812 1.5683594 z M 89.035156 4.2226562 C 89.833454 4.2226562 90.58274 4.3725134 91.28125 4.671875 C 92.013023 4.9712366 92.643583 5.3877235 93.175781 5.9199219 C 93.70798 6.4521202 94.124467 7.0826804 94.423828 7.8144531 C 94.72319 8.5129634 94.873047 9.2622494 94.873047 10.060547 C 94.873047 10.858844 94.72319 11.623696 94.423828 12.355469 C 94.124467 13.053979 93.70798 13.668974 93.175781 14.201172 C 92.643583 14.73337 92.013023 15.149857 91.28125 15.449219 C 90.58274 15.74858 89.833454 15.898438 89.035156 15.898438 C 88.236859 15.898438 87.472007 15.74858 86.740234 15.449219 C 86.041724 15.149857 85.42673 14.73337 84.894531 14.201172 C 84.362333 13.668974 83.945846 13.053979 83.646484 12.355469 C 83.347123 11.623696 83.197266 10.858844 83.197266 10.060547 C 83.197266 9.2622494 83.347123 8.5129634 83.646484 7.8144531 C 83.945846 7.0826804 84.362333 6.4521202 84.894531 5.9199219 C 85.42673 5.3877235 86.041724 4.9712366 86.740234 4.671875 C 87.472007 4.3725134 88.236859 4.2226562 89.035156 4.2226562 z M 14.634766 12.767578 L 17.322266 12.767578 C 21.901821 12.767578 24.191406 14.584972 24.191406 18.21875 C 24.191406 21.852528 21.901821 23.669922 17.322266 23.669922 L 14.634766 23.669922 L 14.634766 12.767578 z M 14.634766 34.570312 L 17.845703 34.570312 C 21.529259 34.570312 24.166877 35.044457 25.759766 35.990234 C 27.352655 36.936012 28.148438 38.454255 28.148438 40.544922 C 28.148437 42.635589 27.352655 44.153832 25.759766 45.099609 C 24.166877 46.045387 21.529259 46.517578 17.845703 46.517578 L 14.634766 46.517578 L 14.634766 34.570312 z M 54.695312 45.150391 C 55.49361 45.150391 56.242896 45.300248 56.941406 45.599609 C 57.673179 45.898971 58.303739 46.315458 58.835938 46.847656 C 59.368135 47.379855 59.784623 48.012368 60.083984 48.744141 C 60.383346 49.442651 60.533203 50.189984 60.533203 50.988281 C 60.533203 51.786579 60.383346 52.55143 60.083984 53.283203 C 59.784623 53.981713 59.368135 54.596708 58.835938 55.128906 C 58.303739 55.661105 57.673179 56.077592 56.941406 56.376953 C 56.242896 56.676315 55.49361 56.826172 54.695312 56.826172 C 53.897016 56.826172 53.132163 56.676315 52.400391 56.376953 C 51.70188 56.077592 51.086885 55.661105 50.554688 55.128906 C 50.022489 54.596708 49.606002 53.981713 49.306641 53.283203 C 49.007279 52.55143 48.857422 51.786579 48.857422 50.988281 C 48.857422 50.189984 49.007279 49.442651 49.306641 48.744141 C 49.606002 48.012368 50.022489 47.379855 50.554688 46.847656 C 51.086885 46.315458 51.70188 45.898971 52.400391 45.599609 C 53.132163 45.300248 53.897016 45.150391 54.695312 45.150391 z "
       transform="matrix(0.26458333,0,0,0.26458333,51.383546,112.3561)"
       id="text12" />
  </g>
  <g
     inkscape:groupmode="layer"
     id="layer2"
     inkscape:label="dot"
     style="display:inline"
     transform="translate(-51.383546,-112.3561)" />
  <g
     inkscape:label="dot copy"
     id="g35"
     inkscape:groupmode="layer"
     transform="translate(-51.383546,-112.3561)"
     style="display:inline" />
  <g
     inkscape:groupmode="layer"
     id="g41"
     inkscape:label="dot copy copy"
     transform="translate(-51.383546,-112.3561)"
     style="display:inline">
    <text
       xml:space="preserve"
       style="font-style:normal;font-variant:normal;font-weight:bold;font-stretch:normal;font-size:13.20101357px;line-height:1.25;font-family:Futura;-inkscape-font-specification:'Futura Bold';letter-spacing:0px;word-spacing:0px;fill:#000000;fill-opacity:1;stroke:none;stroke-width:0.495038"
       x="103.61859"
       y="127.60844"
       id="text39"><tspan
         sodipodi:role="line"
         id="tspan37"
         x="103.61859"
         y="127.60844"
         style="fill:#000000;stroke-width:0.495038">.</tspan></text>
  </g>
</svg>
