<?xml version="1.0" encoding="UTF-8" standalone="no"?>
<!-- Created with Inkscape (http://www.inkscape.org/) -->

<svg
   xmlns:dc="http://purl.org/dc/elements/1.1/"
   xmlns:cc="http://creativecommons.org/ns#"
   xmlns:rdf="http://www.w3.org/1999/02/22-rdf-syntax-ns#"
   xmlns:svg="http://www.w3.org/2000/svg"
   xmlns="http://www.w3.org/2000/svg"
   xmlns:sodipodi="http://sodipodi.sourceforge.net/DTD/sodipodi-0.dtd"
   xmlns:inkscape="http://www.inkscape.org/namespaces/inkscape"
   width="25.135927mm"
   height="7.0555601mm"
   viewBox="0 0 25.135927 7.0555602"
   version="1.1"
   id="svg8"
   inkscape:version="0.92.2 5c3e80d, 2017-08-06"
   sodipodi:docname="blisk-logo_v2-small.svg">
  <defs
     id="defs2" />
  <sodipodi:namedview
     id="base"
     pagecolor="#ffffff"
     bordercolor="#666666"
     borderopacity="1.0"
     inkscape:pageopacity="0.0"
     inkscape:pageshadow="2"
     inkscape:zoom="2"
     inkscape:cx="99.575898"
     inkscape:cy="29.718191"
     inkscape:document-units="mm"
     inkscape:current-layer="layer1"
     showgrid="false"
     inkscape:window-width="948"
     inkscape:window-height="614"
     inkscape:window-x="444"
     inkscape:window-y="82"
     inkscape:window-maximized="0"
     fit-margin-top="0"
     fit-margin-left="0"
     fit-margin-right="0"
     fit-margin-bottom="0"
     inkscape:pagecheckerboard="true" />
  <metadata
     id="metadata5">
    <rdf:RDF>
      <cc:Work
         rdf:about="">
        <dc:format>image/svg+xml</dc:format>
        <dc:type
           rdf:resource="http://purl.org/dc/dcmitype/StillImage" />
        <dc:title></dc:title>
      </cc:Work>
    </rdf:RDF>
  </metadata>
  <g
     inkscape:label="Layer 1"
     inkscape:groupmode="layer"
     id="layer1"
     style="display:inline"
     transform="translate(-51.383546,-121.02619)">
    <path
       style="font-style:normal;font-variant:normal;font-weight:normal;font-stretch:normal;font-size:11.28888893px;line-height:1.25;font-family:Futura;-inkscape-font-specification:Futura;letter-spacing:0px;word-spacing:0px;fill:#000000;fill-opacity:1;stroke:none;stroke-width:0.11870946"
       d="m 65.960002,121.02619 c -0.354546,0 -0.676594,0.0531 -0.966139,0.15952 -0.283636,0.10636 -0.525953,0.25712 -0.726862,0.45212 -0.195001,0.18908 -0.348421,0.41957 -0.460695,0.69139 -0.106364,0.2659 -0.159748,0.56428 -0.159748,0.89519 0,0.3309 0.05024,0.6056 0.150706,0.82424 0.106363,0.21273 0.242376,0.39005 0.40783,0.53187 0.171365,0.14182 0.363432,0.25706 0.576159,0.3457 0.218637,0.0827 0.440182,0.15956 0.664728,0.23046 0.189091,0.0649 0.348547,0.12395 0.478547,0.17714 0.13591,0.0531 0.245347,0.11237 0.328074,0.17737 0.08273,0.0591 0.141682,0.12698 0.177137,0.20379 0.03546,0.0709 0.05332,0.15667 0.05332,0.25713 0,0.16546 -0.07102,0.31307 -0.212842,0.44308 -0.135909,0.12999 -0.345617,0.19499 -0.629253,0.19499 -0.248182,0 -0.499436,-0.0561 -0.753527,-0.16833 -0.254092,-0.11228 -0.510916,-0.28357 -0.770916,-0.51402 l -0.744717,1.4004 c 0.72091,0.50227 1.503918,0.75352 2.348917,0.75352 0.407729,0 0.771089,-0.0563 1.09018,-0.16855 0.324999,-0.10636 0.596797,-0.25712 0.815432,-0.45212 0.224545,-0.20091 0.392939,-0.4401 0.50521,-0.71782 0.118183,-0.27773 0.177369,-0.58794 0.177369,-0.93067 0,-0.50817 -0.13288,-0.91889 -0.398789,-1.23207 -0.260001,-0.31909 -0.673612,-0.57324 -1.240885,-0.76234 -0.141816,-0.0473 -0.286768,-0.0914 -0.434495,-0.13285 -0.141818,-0.0414 -0.271798,-0.0887 -0.38998,-0.1419 -0.112273,-0.0591 -0.203838,-0.12698 -0.274748,-0.20379 -0.0709,-0.0768 -0.106421,-0.17443 -0.10642,-0.2926 -10e-7,-0.17137 0.07103,-0.31005 0.212843,-0.41641 0.141818,-0.10637 0.324948,-0.15975 0.549495,-0.15975 0.177272,0 0.360403,0.0384 0.549495,0.11524 0.189091,0.0709 0.378256,0.18323 0.567347,0.33688 l 0.69139,-1.35612 c -0.330909,-0.17727 -0.67663,-0.31016 -1.037086,-0.3988 -0.360454,-0.0945 -0.706174,-0.14189 -1.037083,-0.14189 z m -14.576456,0.18619 v 6.6832 h 2.791991 c 0.354546,0 0.67369,-0.0414 0.957327,-0.12405 0.283636,-0.0827 0.523053,-0.2069 0.718053,-0.37236 0.200909,-0.16545 0.354563,-0.36936 0.460927,-0.61162 0.112272,-0.24228 0.168326,-0.51987 0.168326,-0.83306 0,-0.20091 -0.02367,-0.39007 -0.07095,-0.56735 -0.04727,-0.17727 -0.127001,-0.33696 -0.239273,-0.47878 -0.106364,-0.14181 -0.24818,-0.25996 -0.425453,-0.3545 -0.171364,-0.10047 -0.381071,-0.17415 -0.629253,-0.22142 0.248182,-0.15364 0.431312,-0.33991 0.549495,-0.55854 0.124091,-0.22454 0.186179,-0.50528 0.186179,-0.8421 0,-0.55545 -0.159688,-0.9809 -0.478779,-1.27636 -0.319091,-0.29545 -0.785855,-0.44306 -1.400401,-0.44306 z m 5.567984,0 v 6.6832 h 3.820265 v -1.47136 h -2.08298 v -5.21184 z m 4.148571,0 v 6.6832 h 1.737284 v -6.6832 z m 7.74301,0 v 6.6832 h 1.737285 v -2.89841 l 2.26035,2.89841 h 2.251306 l -2.898413,-3.51886 2.650095,-3.16434 H 72.69885 l -2.118454,2.75651 v -2.75651 z m -6.890249,0.31507 c 0.09476,0 0.183712,0.0178 0.266631,0.0534 0.08687,0.0356 0.161723,0.0849 0.2249,0.14816 0.06318,0.0632 0.112618,0.13802 0.148155,0.2249 0.03554,0.0829 0.05332,0.17186 0.05332,0.26663 0,0.0947 -0.01779,0.18556 -0.05332,0.27243 -0.03554,0.0829 -0.08498,0.15592 -0.148155,0.2191 -0.06318,0.0631 -0.13803,0.11261 -0.2249,0.14815 -0.08292,0.0356 -0.171866,0.0533 -0.266631,0.0533 -0.09477,0 -0.18556,-0.0178 -0.27243,-0.0533 -0.08292,-0.0355 -0.155925,-0.0849 -0.219102,-0.14815 -0.06318,-0.0632 -0.112618,-0.13618 -0.148155,-0.2191 -0.03554,-0.0869 -0.05332,-0.17768 -0.05332,-0.27243 0,-0.0947 0.01778,-0.18371 0.05332,-0.26663 0.03554,-0.0869 0.08497,-0.16173 0.148155,-0.2249 0.06318,-0.0631 0.136183,-0.11262 0.219102,-0.14816 0.08687,-0.0355 0.177664,-0.0534 0.27243,-0.0534 z m -8.832031,1.01437 h 0.319032 c 0.543636,0 0.815432,0.21575 0.815432,0.64711 0,0.43137 -0.271796,0.6471 -0.815432,0.6471 h -0.319032 z m 0,2.58819 H 53.502 c 0.437273,0 0.750382,0.0563 0.939474,0.16857 0.189091,0.11227 0.283557,0.2925 0.283557,0.54068 0,0.24818 -0.09447,0.42842 -0.283557,0.54068 -0.189092,0.11227 -0.502201,0.16833 -0.939474,0.16833 h -0.381169 z m 4.755567,1.25597 c 0.09476,0 0.183711,0.0178 0.266632,0.0533 0.08687,0.0355 0.161721,0.0849 0.224898,0.14816 0.06318,0.0632 0.112618,0.13826 0.148155,0.22512 0.03554,0.0829 0.05332,0.17164 0.05332,0.26641 0,0.0947 -0.01779,0.18556 -0.05332,0.27242 -0.03554,0.0829 -0.08498,0.15593 -0.148155,0.21911 -0.06318,0.0631 -0.13803,0.11262 -0.224898,0.14816 -0.08292,0.0355 -0.171867,0.0533 -0.266632,0.0533 -0.09477,0 -0.185561,-0.0178 -0.27243,-0.0533 -0.08292,-0.0356 -0.155926,-0.0849 -0.219102,-0.14816 -0.06318,-0.0632 -0.112618,-0.13618 -0.148155,-0.21911 -0.03554,-0.0869 -0.05332,-0.17766 -0.05332,-0.27242 0,-0.0948 0.01779,-0.18348 0.05332,-0.26641 0.03554,-0.0869 0.08498,-0.16195 0.148155,-0.22512 0.06318,-0.0631 0.136182,-0.11263 0.219102,-0.14816 0.08687,-0.0356 0.177664,-0.0533 0.27243,-0.0533 z"
       id="text12"
       inkscape:connector-curvature="0" />
  </g>
  <g
     inkscape:groupmode="layer"
     id="layer2"
     inkscape:label="dot"
     style="display:inline"
     transform="translate(-51.383546,-121.02619)" />
  <g
     inkscape:label="dot copy"
     id="g35"
     inkscape:groupmode="layer"
     transform="translate(-51.383546,-121.02619)"
     style="display:inline" />
  <g
     inkscape:groupmode="layer"
     id="g41"
     inkscape:label="dot copy copy"
     transform="translate(-51.383546,-121.02619)"
     style="display:inline">
    <text
       xml:space="preserve"
       style="font-style:normal;font-variant:normal;font-weight:bold;font-stretch:normal;font-size:5.92284203px;line-height:1.25;font-family:Futura;-inkscape-font-specification:'Futura Bold';letter-spacing:0px;word-spacing:0px;fill:#000000;fill-opacity:1;stroke:none;stroke-width:0.22210656"
       x="74.819618"
       y="127.86939"
       id="text39"><tspan
         sodipodi:role="line"
         id="tspan37"
         x="74.819618"
         y="127.86939"
         style="fill:#000000;stroke-width:0.22210656">.</tspan></text>
  </g>
</svg>
